<svg width="74" height="56" viewBox="0 0 74 56" fill="none" xmlns="http://www.w3.org/2000/svg">
<path d="M62.4849 4.97609C57.69 2.78085 52.628 1.22348 47.4284 0.34375C46.7169 1.61571 46.0731 2.92439 45.4997 4.2643C39.961 3.42969 34.3286 3.42969 28.79 4.2643C28.2163 2.92452 27.5725 1.61586 26.8613 0.34375C21.6583 1.23091 16.593 2.79198 11.7933 4.98757C2.26454 19.0855 -0.318542 32.8332 0.973001 46.3858C6.55326 50.5088 12.7992 53.6444 19.4392 55.6562C20.9343 53.6453 22.2574 51.512 23.3942 49.2789C21.2349 48.4724 19.1508 47.4775 17.1661 46.3055C17.6884 45.9266 18.1993 45.5363 18.693 45.1574C24.4682 47.8734 30.7715 49.2816 37.1534 49.2816C43.5354 49.2816 49.8387 47.8734 55.6139 45.1574C56.1133 45.565 56.6242 45.9553 57.1408 46.3055C55.1522 47.4794 53.0643 48.4762 50.9012 49.2846C52.0366 51.5167 53.3597 53.6483 54.8562 55.6562C61.5019 53.6524 67.7526 50.5183 73.3339 46.3916C74.8493 30.6749 70.745 17.0535 62.4849 4.97609ZM25.0301 38.0511C21.431 38.0511 18.4576 34.7849 18.4576 30.7668C18.4576 26.7486 21.3277 23.4538 25.0187 23.4538C28.7096 23.4538 31.6601 26.7486 31.5969 30.7668C31.5338 34.7849 28.6981 38.0511 25.0301 38.0511ZM49.2767 38.0511C45.6719 38.0511 42.7099 34.7849 42.7099 30.7668C42.7099 26.7486 45.58 23.4538 49.2767 23.4538C52.9734 23.4538 55.9009 26.7486 55.8378 30.7668C55.7746 34.7849 52.9447 38.0511 49.2767 38.0511Z" fill="white"/>
</svg>
