<svg width="124" height="34" viewBox="0 0 124 34" fill="none" xmlns="http://www.w3.org/2000/svg">
<path d="M26.0015 6.9529C24.0021 6.03845 21.8787 5.37198 19.6623 5C19.3833 5.48048 19.0733 6.13144 18.8563 6.64292C16.4989 6.30193 14.1585 6.30193 11.8336 6.64292C11.6166 6.13144 11.2911 5.48048 11.0276 5C8.79575 5.37198 6.67235 6.03845 4.6869 6.9529C0.672601 12.8736 -0.41235 18.6548 0.130124 24.3585C2.79599 26.2959 5.36889 27.4739 7.89682 28.2489C8.51679 27.4119 9.07477 26.5129 9.55525 25.5675C8.64079 25.2265 7.77283 24.808 6.93587 24.312C7.15286 24.1571 7.36986 23.9866 7.57135 23.8161C12.6241 26.1255 18.0969 26.1255 23.0876 23.8161C23.3046 23.9866 23.5061 24.1571 23.7231 24.312C22.8861 24.808 22.0182 25.2265 21.1037 25.5675C21.5842 26.5129 22.1422 27.4119 22.7621 28.2489C25.2885 27.4739 27.8769 26.2959 30.5288 24.3585C31.1952 17.7559 29.4733 12.0212 26.0015 6.9529ZM10.2527 20.8402C8.73376 20.8402 7.49382 19.4608 7.49382 17.7714C7.49382 16.082 8.70276 14.7025 10.2527 14.7025C11.7871 14.7025 13.0425 16.082 13.0115 17.7714C13.0115 19.4608 11.7871 20.8402 10.2527 20.8402ZM20.4373 20.8402C18.9183 20.8402 17.6768 19.4608 17.6768 17.7714C17.6768 16.082 18.8873 14.7025 20.4373 14.7025C21.9717 14.7025 23.2271 16.082 23.1961 17.7714C23.1961 19.4608 21.9872 20.8402 20.4373 20.8402Z" fill="white"/>
<path d="M41.2695 9.86621H47.8583C49.4392 9.86621 50.7876 10.1142 51.8881 10.6102C52.9885 11.1062 53.81 11.7882 54.3525 12.6716C54.8949 13.5551 55.1739 14.5625 55.1739 15.7095C55.1739 16.8254 54.895 17.8329 54.3215 18.7473C53.748 19.6463 52.8801 20.3747 51.7176 20.9017C50.5552 21.4287 49.1137 21.6922 47.3933 21.6922H41.2695V9.86621ZM47.3158 18.6853C48.3852 18.6853 49.2067 18.4218 49.7802 17.8794C50.3537 17.3524 50.6482 16.6084 50.6482 15.694C50.6482 14.8415 50.3847 14.1595 49.8732 13.6481C49.3617 13.1366 48.5868 12.8731 47.5483 12.8731H45.4869V18.6853H47.3158Z" fill="white"/>
<path d="M65.4361 21.6772C64.5216 21.4447 63.7002 21.1037 62.9717 20.6387V17.8333C63.5297 18.2673 64.2581 18.6083 65.1881 18.8873C66.118 19.1663 67.017 19.3058 67.885 19.3058C68.2879 19.3058 68.5979 19.2593 68.7994 19.1508C69.0009 19.0423 69.1094 18.9183 69.1094 18.7633C69.1094 18.5928 69.0474 18.4533 68.9389 18.3448C68.8304 18.2363 68.6134 18.1433 68.2879 18.0503L66.2575 17.6009C65.0951 17.3374 64.2736 16.9499 63.7776 16.4849C63.2817 16.0199 63.0492 15.3845 63.0492 14.6095C63.0492 13.9585 63.2662 13.3851 63.6846 12.9046C64.1186 12.4241 64.7231 12.0521 65.5136 11.7886C66.304 11.5252 67.2185 11.3857 68.2879 11.3857C69.2334 11.3857 70.1013 11.4787 70.8918 11.6957C71.6822 11.8971 72.3332 12.1606 72.8447 12.4706V15.121C72.3177 14.811 71.6978 14.563 71.0158 14.377C70.3183 14.191 69.6054 14.098 68.8769 14.098C67.8229 14.098 67.296 14.284 67.296 14.6405C67.296 14.811 67.3735 14.935 67.544 15.028C67.7145 15.121 68.0089 15.1985 68.4429 15.2915L70.1323 15.6015C71.2328 15.7874 72.0542 16.1284 72.5967 16.6089C73.1392 17.0894 73.4027 17.7868 73.4027 18.7323C73.4027 19.7553 72.9532 20.5767 72.0542 21.1657C71.1553 21.7702 69.8843 22.0646 68.2414 22.0646C67.2805 22.0336 66.3505 21.9096 65.4361 21.6772Z" fill="white"/>
<path d="M77.5887 21.3211C76.6277 20.8406 75.8838 20.2052 75.4033 19.3992C74.9073 18.5932 74.6748 17.6788 74.6748 16.6558C74.6748 15.6484 74.9228 14.7339 75.4343 13.9435C75.9458 13.1375 76.6897 12.5175 77.6662 12.0526C78.6426 11.6031 79.8206 11.3706 81.1845 11.3706C82.8739 11.3706 84.2689 11.7271 85.3848 12.44V15.5244C84.9973 15.2609 84.5324 15.0284 84.0054 14.8734C83.4784 14.7029 82.9204 14.6254 82.3315 14.6254C81.2775 14.6254 80.4716 14.8114 79.8671 15.1989C79.2781 15.5864 78.9836 16.0824 78.9836 16.7023C78.9836 17.3068 79.2626 17.8028 79.8516 18.1903C80.425 18.5777 81.262 18.7792 82.347 18.7792C82.9049 18.7792 83.4629 18.7017 84.0054 18.5312C84.5479 18.3607 85.0283 18.1748 85.4158 17.9268V20.9181C84.1758 21.6621 82.7344 22.0341 81.107 22.0341C79.7276 22.0341 78.5651 21.7861 77.5887 21.3211Z" fill="white"/>
<path d="M89.8038 21.3211C88.8273 20.8406 88.0834 20.2052 87.5719 19.3837C87.0604 18.5622 86.7969 17.6478 86.7969 16.6248C86.7969 15.6174 87.0604 14.7029 87.5719 13.9125C88.0834 13.122 88.8273 12.502 89.7883 12.0526C90.7492 11.6031 91.9116 11.3706 93.2461 11.3706C94.5791 11.3706 95.7415 11.5876 96.7025 12.0526C97.6634 12.502 98.4074 13.122 98.9189 13.9125C99.4303 14.7029 99.6783 15.6019 99.6783 16.6248C99.6783 17.6323 99.4303 18.5622 98.9189 19.3837C98.4074 20.2052 97.6789 20.8561 96.7025 21.3211C95.726 21.7861 94.5791 22.0341 93.2461 22.0341C91.9271 22.0341 90.7802 21.7861 89.8038 21.3211ZM94.9355 18.3297C95.3385 17.9268 95.5555 17.3688 95.5555 16.7023C95.5555 16.0204 95.354 15.4934 94.9355 15.0904C94.5171 14.6874 93.9591 14.4859 93.2616 14.4859C92.5332 14.4859 91.9736 14.6874 91.5552 15.0904C91.1522 15.4934 90.9352 16.0204 90.9352 16.7023C90.9352 17.3843 91.1367 17.9268 91.5552 18.3297C91.9736 18.7482 92.5332 18.9497 93.2616 18.9497C93.9591 18.9342 94.5326 18.7327 94.9355 18.3297Z" fill="white"/>
<path d="M110.048 11.9903V15.6327C109.614 15.3537 109.056 15.2142 108.374 15.2142C107.475 15.2142 106.777 15.4932 106.297 16.0356C105.816 16.5781 105.568 17.4306 105.568 18.5775V21.6774H101.43V11.8198H105.491V14.9662C105.708 13.8192 106.08 12.9668 106.576 12.4243C107.072 11.8818 107.723 11.5874 108.513 11.5874C109.102 11.5874 109.614 11.7269 110.048 11.9903Z" fill="white"/>
<path d="M124 9.52539V21.6923H119.862V19.4759C119.505 20.3129 118.978 20.9484 118.265 21.3823C117.551 21.8163 116.667 22.0333 115.613 22.0333C114.683 22.0333 113.862 21.8008 113.164 21.3513C112.467 20.9019 111.925 20.2664 111.553 19.4759C111.181 18.67 110.995 17.771 110.995 16.7791C110.979 15.7406 111.181 14.8107 111.599 13.9892C112.002 13.1678 112.591 12.5323 113.335 12.0673C114.079 11.6023 114.931 11.3698 115.892 11.3698C117.861 11.3698 119.18 12.2223 119.862 13.9427V9.52539H124ZM119.242 18.2515C119.66 17.8485 119.877 17.306 119.877 16.6551C119.877 16.0196 119.676 15.5081 119.257 15.1207C118.839 14.7332 118.281 14.5317 117.582 14.5317C116.884 14.5317 116.326 14.7332 115.908 15.1362C115.489 15.5391 115.288 16.0506 115.288 16.7016C115.288 17.3525 115.489 17.864 115.908 18.267C116.326 18.67 116.869 18.8715 117.566 18.8715C118.265 18.8715 118.823 18.67 119.242 18.2515Z" fill="white"/>
<path d="M58.9884 12.409C60.1771 12.409 61.1428 11.5415 61.1428 10.4716C61.1428 9.40152 60.1771 8.53418 58.9884 8.53418C57.798 8.53418 56.834 9.40152 56.834 10.4716C56.834 11.5415 57.798 12.409 58.9884 12.409Z" fill="white"/>
<path d="M61.1428 13.7412C59.8253 14.3146 58.1824 14.3301 56.834 13.7412V21.6923H61.1428V13.7412Z" fill="white"/>
</svg>
