<svg width="532" height="50" viewBox="0 0 532 50" fill="none" xmlns="http://www.w3.org/2000/svg">
<g clip-path="url(#clip0_1_1617)">
<path d="M527.598 15.6446L531.201 14.0624C531.289 13.9745 531.289 13.8866 531.201 13.8866L527.598 12.3045L525.928 8.61279C525.928 8.5249 525.84 8.5249 525.84 8.61279L524.17 12.2166L520.566 13.8866C520.478 13.8866 520.478 13.9745 520.566 14.0624L524.17 15.6446L525.84 19.2484H525.928L527.598 15.6446Z" fill="#6ADBC6"/>
<path opacity="0.5" d="M304.075 6.94688L307.475 5.44688V5.24687L304.075 3.84687L302.575 0.546875H302.375L300.875 3.84687L297.575 5.24687C297.475 5.34687 297.475 5.44688 297.575 5.44688L300.875 6.94688L302.375 10.3469H302.575L304.075 6.94688Z" fill="#9691FF"/>
<path d="M506.375 44.409L511.45 42.1836C511.482 42.1476 511.5 42.101 511.5 42.0527C511.5 42.0044 511.482 41.9578 511.45 41.9218L506.375 39.6964L504.098 34.5912C504.085 34.5773 504.07 34.5661 504.054 34.5585C504.037 34.5509 504.018 34.5469 504 34.5469C503.982 34.5469 503.963 34.5509 503.946 34.5585C503.93 34.5661 503.915 34.5773 503.902 34.5912L501.625 39.631L496.55 41.9218C496.518 41.9578 496.5 42.0044 496.5 42.0527C496.5 42.101 496.518 42.1476 496.55 42.1836L501.625 44.409L503.902 49.4487C503.989 49.5796 504.054 49.5796 504.098 49.4487L506.375 44.409Z" fill="#628BF7"/>
<path d="M15.7764 34.6969L23.4764 31.2969C23.5294 31.2969 23.5803 31.2758 23.6178 31.2383C23.6553 31.2008 23.6764 31.1499 23.6764 31.0969C23.6764 31.0439 23.6553 30.993 23.6178 30.9555C23.5803 30.918 23.5294 30.8969 23.4764 30.8969L15.7764 27.4969C15.7499 27.4969 15.7244 27.4864 15.7057 27.4676C15.6869 27.4489 15.6764 27.4234 15.6764 27.3969L12.1764 19.6969C12.1764 19.4969 11.9764 19.4969 11.8764 19.6969L8.47639 27.3969H8.37639L0.576393 30.8969C0.527198 30.9519 0.5 31.0231 0.5 31.0969C0.5 31.1707 0.527198 31.2419 0.576393 31.2969L8.37639 34.6969H8.47639L11.8764 42.4969C11.9764 42.6969 12.1764 42.6969 12.1764 42.4969L15.6764 34.7969C15.6764 34.7704 15.6869 34.7449 15.7057 34.7262C15.7244 34.7074 15.7499 34.6969 15.7764 34.6969Z" fill="#FF7ABC"/>
</g>
<defs>
<clipPath id="clip0_1_1617">
<rect width="531" height="49" fill="white" transform="translate(0.5 0.546875)"/>
</clipPath>
</defs>
</svg>
